<?xml version="1.0" encoding="utf-8"?>
<!-- Generator: Adobe Illustrator 22.1.0, SVG Export Plug-In . SVG Version: 6.00 Build 0)  -->
<svg version="1.1" id="Layer_1" xmlns="http://www.w3.org/2000/svg" xmlns:xlink="http://www.w3.org/1999/xlink" x="0px" y="0px"
	 viewBox="0 0 30 36" style="enable-background:new 0 0 30 36;" xml:space="preserve">
<path class="st0" d="M14.7,35.9c-1.8-0.8-3-2.2-3.3-4.2c0-0.1,0-0.6-0.1-0.7c-0.1-0.1-0.6-0.1-0.7-0.2c-0.4-0.1-0.8-0.4-1.2-0.7
	c-0.7-0.6-1.1-1.4-1.2-2.3c-0.1-0.7-0.1-1.5,0.6-1.9c0.4-0.2,1-0.1,1.3,0.2c0.3,0.3,0.3,0.7,0.4,1.1c0.1,0.4,0.2,0.9,0.5,1.2
	c0.3,0.3,0.9,0.1,1.3,0c0.9-0.2,1.9-0.3,2.1,0.9c0,0.4-0.3,0.9-0.5,1.3c-0.2,0.4-0.3,0.9-0.2,1.3c0.1,0.6,1.2,1.9,1.9,1.6
	c0.6-0.2,1-0.8,1.3-1.3c0.3-0.5,0.2-0.8,0.1-1.3c-0.1-0.4-0.3-0.8-0.4-1.3c-0.1-0.4-0.1-0.9,0.3-1.2c0.4-0.2,0.9-0.2,1.3-0.1
	c0.5,0.2,1.1,0.4,1.6,0c0.6-0.6,0.2-1.6,0.8-2.3c0.3-0.3,0.6-0.4,1-0.2c0.5,0.2,0.8,0.5,0.9,1c0.2,0.9,0,1.9-0.6,2.7
	c-0.3,0.4-0.6,0.7-1,0.9c-0.2,0.1-0.4,0.2-0.7,0.3c-0.2,0.1-0.5,0.1-0.6,0.2c-0.1,0.1,0,0.5-0.1,0.7c0,0.3-0.1,0.6-0.2,0.8
	c-0.1,0.4-0.3,0.8-0.5,1.2c-0.5,0.8-1.3,1.3-2.1,1.8C16,36,15.5,36.1,14.7,35.9z" fill="white"/>
<path class="st0" d="M1.2,16.3c0.2-0.6,0.4-1.1,0.7-1.6c0.3-0.5,0.7-0.9,1-1.4c0.7-0.8,1.5-1.4,2.5-1.8c0.5-0.2,1.1-0.3,1.7-0.4
	c0.3,0,0.5-0.1,0.8-0.1c0.2,0,0.7,0.1,0.9-0.1c0.2-0.1,0.1-1.3,0.1-1.7C9,8.8,9,8.2,9.1,7.7c0.3-2.2,1.6-4.4,3.4-5.8
	c0.4-0.3,1-0.6,1.5-0.9c0.4-0.2,0.8-0.5,1.3-0.6c1-0.1,2.1,0.9,2.9,1.4c1.8,1.3,3.2,3.2,3.6,5.4c0.1,0.6,0.2,1.2,0.2,1.7
	c0,0.3,0,0.6,0,1c0,0.2-0.2,0.7-0.1,0.9c0.1,0.2,0.9,0.3,1.2,0.3c0.4,0.1,0.9,0.1,1.3,0.2c2.1,0.6,3.8,2.2,4.7,4.1
	c0.8,1.6,1,3.3,0.4,5c-0.1,0.5-0.3,1-0.5,1.4c-0.2,0.5-0.7,0.9-1,1.3c-0.7,0.7-1.5,1.4-2.4,1.9c-0.5,0.3-1.1,0.4-1.7,0.4
	c-0.3,0-0.6-0.1-0.8-0.3c-0.1-0.2-0.2-0.5-0.3-0.7c-0.2-1.1,1.1-1.3,1.8-1.6c1-0.4,1.9-1.4,2.3-2.4c0.9-1.9,0.3-4.5-1.3-5.9
	c-0.7-0.6-1.7-1-2.6-1.2c-0.9-0.2-1.9,0.2-2.9,0.2c-0.6,0-1.1-0.2-1.3-0.8c-0.2-0.6,0.1-1,0.4-1.6c0.4-0.9,0.5-1.9,0.4-2.9
	c-0.3-2-1.6-4-3.3-5.1C15.8,3,15.4,2.8,15,3.2c-0.5,0.4-1,0.7-1.4,1.2c-0.8,0.8-1.5,1.6-2,2.7c-0.4,1-0.5,2.1-0.3,3.2
	c0.1,0.6,0.3,1.2,0.6,1.7c0.2,0.4,0.3,0.8,0.1,1.3c-0.2,0.7-1.1,0.7-1.7,0.6c-1.1-0.2-2.2-0.3-3.3-0.1c-2.3,0.4-3.9,2.8-3.7,5.1
	c0.1,1,0.5,2.3,1.4,2.9c0.7,0.5,1.7,1.2,1.1,2.2c-0.6,0.9-1.8,0.4-2.4-0.1c-0.7-0.6-1.4-1.5-1.9-2.4C0.8,19.8,0.6,17.8,1.2,16.3z" fill="white" />
<path class="st0" d="M17.2,25.5c-0.5-0.2-1-0.5-1.1-1C15.9,24,16,23.4,16,22.8c0-0.6,0-1.1-0.1-1.7c-0.2,0-0.5,0-0.7,0.1
	c-0.1,0-0.2,0-0.2,0.1c-0.1,0.1,0,0.3,0,0.4c0,0.5,0,1-0.1,1.6c-0.1,0.9-0.4,2.2-1.6,2c-0.9-0.1-1-1.2-0.9-2c0-0.2,0-0.5,0.1-0.7
	c0-0.1,0-0.2,0-0.3c-0.1-0.2,0.1-0.1-0.2-0.2c-0.4-0.1-0.8,0.1-1.1-0.1c-0.5-0.2-0.6-1.3-0.3-1.6c0.2-0.2,0.4-0.3,0.6-0.4
	c0.1-0.1,0.3-0.1,0.4-0.1c0.1,0,0.2-0.1,0.3-0.1c0.3-0.1,0.3-0.1,0.3-0.3c0.1-1.1-0.3-2.3-0.4-3.3c-0.1-0.6-0.2-1.4,0.5-1.6
	c2.1-0.8,2.2,3.2,2.4,4.5c0.3-0.1,0.6-0.2,0.9-0.3c0.2-0.1,0.3-0.1,0.4-0.2c0.1-0.1,0.1-0.4,0.1-0.5c0.1-0.8,0.3-1.6,0.6-2.3
	c0.3-0.6,0.7-1.3,1.5-1.2c0.7,0.1,1,0.7,1,1.4c0,0.7-0.4,1.4-0.6,2.1c0.8-0.1,2.3-0.6,2.9,0.2c0.7,1-0.2,1.8-1.2,2
	c-0.5,0.1-1,0.1-1.4,0.2c-0.1,0-0.3,0-0.4,0.1c-0.2,0.1-0.1,0-0.2,0.2c0,0.2,0,0.5,0,0.7c0,0.5,0,1,0,1.5c0,0.5,0.1,1,0,1.5
	C18.3,25.1,17.7,25.3,17.2,25.5z" fill="white" />
<path class="st0" d="M20,25.3c-0.9-0.8-0.9-1.8-0.7-2.9c0.1-0.6,0.1-1.1,0.7-1.4c0.5-0.3,1.1-0.3,1.6-0.4c1.1-0.3,2-1.1,1.8-2.3
	c-0.2-1.1-1.8-1.1-2.7-1.3c-0.5-0.1-0.7-0.9-0.6-1.3c0.1-0.6,0.7-0.8,1.2-0.8c1,0,2.2,0.2,3,0.8c1.9,1.6,1.9,4.1,0.2,5.9
	c-0.4,0.4-0.8,0.8-1.3,1c-0.4,0.1-1.1,0.3-1.4,0.5c-0.3,0.2-0.2,1.1-0.3,1.5c-0.1,0.3-0.3,0.6-0.7,0.7C20.6,25.3,20.3,25.3,20,25.3z
	" fill="white"/>
<path class="st0" d="M7.9,25.2c-0.7-0.4-1.3-0.7-1.1-1.6c0.3-1.4,0.6-2.7,0.9-4.1C7.8,18.8,8,18,8.2,17.2c-0.1,0.1-0.4,0.1-0.5,0.2
	c-0.2,0.2-0.3,0.8-0.4,1c-0.1,0.3-0.2,0.8-0.4,1c-0.2,0.2-0.7,0.2-0.9,0.2c-1.5-0.2-1.1-2.3-0.5-3.2c0.7-1.1,2.3-1.7,3.5-1.7
	c0.6,0,1.4,0.3,1.7,0.8c0.3,0.5,0,1.7-0.1,2.2c-0.3,1.6-0.8,3.2-1.2,4.8c0.5,0,1.1-0.1,1.6,0.2c0.4,0.2,0.6,0.9,0.5,1.4
	C11.1,25.5,8.8,25.2,7.9,25.2z" fill="white"/>
</svg>
